<?xml version="1.0" encoding="UTF-8"?>
<svg id="Calque_2" data-name="Calque 2" xmlns="http://www.w3.org/2000/svg" viewBox="0 0 506.59 381.53">
  <defs>
    <style>
      .cls-1 {
        fill: #f39200;
      }
    </style>
  </defs>
  <g id="Calque_1-2" data-name="Calque 1">
    <path class="cls-1" d="M70.08,377.59l.41-18.01c.02-.74,.25-1.48,.67-2.11l10.13-15.27c1.73-2.61-.07-5.99-3.16-5.95l-18.14,.2c-.75,0-1.48-.2-2.1-.59l-15.05-9.55c-2.57-1.63-6.04,.27-6.11,3.34l-.41,18.01c-.02,.74-.25,1.48-.67,2.11l-10.13,15.27c-1.73,2.61,.07,5.99,3.16,5.95l18.14-.2c.75,0,1.48,.2,2.1,.59l15.05,9.55c2.57,1.63,6.04-.27,6.11-3.34Z"/>
    <path class="cls-1" d="M38.13,304.85l6.92-16.87c.29-.7,.76-1.3,1.38-1.75l14.87-10.8c2.54-1.84,2.12-5.68-.75-6.76l-16.77-6.31c-.69-.26-1.29-.72-1.72-1.31l-10.39-14.42c-1.77-2.46-5.65-1.91-6.84,.97l-6.92,16.87c-.29,.7-.76,1.3-1.38,1.75l-14.87,10.8c-2.54,1.84-2.12,5.68,.75,6.76l16.77,6.31c.69,.26,1.29,.72,1.72,1.31l10.39,14.42c1.77,2.46,5.65,1.91,6.84-.97Z"/>
    <path class="cls-1" d="M35.16,224.68l12.5-13.46c.52-.56,1.18-.96,1.91-1.16l17.62-4.87c3.01-.83,4.01-4.61,1.77-6.65l-13.14-11.97c-.54-.49-.93-1.14-1.11-1.86l-4.32-17.34c-.74-2.96-4.51-3.83-6.65-1.53l-12.5,13.46c-.52,.56-1.18,.96-1.91,1.16l-17.62,4.87c-3.01,.83-4.01,4.61-1.77,6.65l13.14,11.97c.54,.49,.93,1.14,1.11,1.86l4.32,17.34c.74,2.96,4.51,3.83,6.65,1.53Z"/>
    <path class="cls-1" d="M61.56,147.88l16.4-8.23c.68-.34,1.43-.48,2.18-.41l17.99,1.71c3.07,.29,5.37-2.92,4.05-5.65l-7.75-16.02c-.32-.66-.44-1.41-.34-2.15l2.33-17.93c.4-3.06-2.76-5.24-5.56-3.83l-16.4,8.23c-.68,.34-1.43,.48-2.18,.41l-17.99-1.71c-3.07-.29-5.37,2.92-4.05,5.65l7.75,16.02c.32,.66,.44,1.41,.34,2.15l-2.33,17.93c-.4,3.06,2.76,5.24,5.56,3.83Z"/>
    <path class="cls-1" d="M113.78,84.79l18.09-1.9c.75-.08,1.49,.06,2.15,.39l15.94,8.07c2.72,1.38,6-.83,5.78-3.89l-1.31-17.91c-.05-.74,.11-1.49,.46-2.15l8.66-16.11c1.48-2.75-.64-5.94-3.73-5.61l-18.09,1.9c-.75,.08-1.49-.06-2.15-.39l-15.94-8.07c-2.72-1.38-6,.83-5.78,3.89l1.31,17.91c.05,.74-.11,1.49-.46,2.15l-8.66,16.11c-1.48,2.75,.64,5.94,3.73,5.61Z"/>
    <path class="cls-1" d="M184.78,43.9l17.35,4.69c.72,.19,1.36,.59,1.84,1.14l11.75,13.33c2.01,2.28,5.83,1.37,6.73-1.6l5.31-17.39c.22-.72,.64-1.37,1.21-1.87l13.83-12.11c2.36-2.07,1.57-5.84-1.39-6.64l-17.35-4.69c-.72-.19-1.36-.59-1.84-1.14l-11.75-13.33c-2.01-2.28-5.83-1.37-6.73,1.6l-5.31,17.39c-.22,.72-.64,1.37-1.21,1.87l-13.83,12.11c-2.36,2.07-1.57,5.84,1.39,6.64Z"/>
    <path class="cls-1" d="M265.01,30.71l14.27,10.65c.59,.44,1.03,1.04,1.28,1.74l5.97,16.81c1.02,2.87,4.87,3.38,6.78,.9l11.21-14.53c.46-.6,1.09-1.06,1.79-1.33l17.13-6.49c2.93-1.11,3.57-4.95,1.13-6.77l-14.27-10.65c-.59-.44-1.03-1.04-1.28-1.74l-5.97-16.81c-1.02-2.87-4.87-3.38-6.78-.9l-11.21,14.53c-.46,.6-1.09,1.06-1.79,1.33l-17.13,6.49c-2.93,1.11-3.57,4.95-1.13,6.77Z"/>
    <path class="cls-1" d="M343.67,47.01l9.26,15.17c.38,.63,.57,1.36,.55,2.1l-.61,18.01c-.1,3.08,3.25,4.94,5.92,3.28l15.6-9.71c.64-.4,1.39-.61,2.13-.61h18.13c3.1,.01,5.08-3.39,3.5-5.98l-9.26-15.17c-.38-.63-.57-1.36-.55-2.1l.61-18.01c.1-3.08-3.25-4.94-5.92-3.28l-15.6,9.71c-.64,.4-1.39,.61-2.13,.61h-18.13c-3.1-.01-5.08,3.39-3.5,5.98Z"/>
    <path class="cls-1" d="M410.16,90.6l3.01,17.65c.12,.73,.03,1.49-.26,2.18l-7.11,16.8c-1.21,2.87,1.2,5.83,4.26,5.22l17.89-3.58c.74-.15,1.5-.08,2.19,.18l16.69,6.51c2.85,1.11,5.92-1.39,5.4-4.4l-3.01-17.65c-.12-.73-.03-1.49,.26-2.18l7.11-16.8c1.21-2.87-1.2-5.83-4.26-5.22l-17.89,3.58c-.74,.15-1.5,.08-2.19-.18l-16.69-6.51c-2.85-1.11-5.92,1.39-5.4,4.4Z"/>
    <path class="cls-1" d="M455.52,155.61l-3.64,17.76c-.15,.73-.51,1.42-1.03,1.97l-12.65,13.32c-2.16,2.27-1.01,5.94,2.02,6.46l17.77,3.03c.73,.12,1.41,.46,1.95,.96l13,12.13c2.22,2.07,5.95,.81,6.57-2.22l3.64-17.76c.15-.73,.51-1.42,1.03-1.97l12.65-13.32c2.16-2.27,1.01-5.94-2.02-6.46l-17.77-3.03c-.73-.12-1.41-.46-1.95-.96l-13-12.13c-2.22-2.07-5.95-.81-6.57,2.22Z"/>
    <path class="cls-1" d="M473.66,233.28l-9.81,15.47c-.41,.64-.98,1.16-1.66,1.49l-16.49,8.05c-2.82,1.37-3.09,5.25-.49,6.82l15.26,9.23c.63,.38,1.13,.94,1.44,1.6l7.56,16.12c1.29,2.75,5.18,2.9,6.86,.25l9.81-15.47c.41-.64,.98-1.16,1.66-1.49l16.49-8.05c2.82-1.37,3.09-5.25,.49-6.82l-15.26-9.23c-.63-.38-1.13-.94-1.44-1.6l-7.56-16.12c-1.29-2.75-5.18-2.9-6.86-.25Z"/>
    <polyline class="cls-1" points="334.43 268.99 331.03 156.45 302.09 190.66 270.52 162.63 236.7 203.18 201.41 170.26 173.01 212.31 122.02 192.96 166.54 295.53"/>
    <path class="cls-1" d="M462.13,313.17l-14.65,11.1c-.61,.46-1.32,.74-2.07,.81l-18.11,1.69c-3.09,.29-4.75,3.85-2.93,6.27l10.7,14.19c.44,.59,.7,1.29,.75,2.03l1.1,17.94c.19,3.06,3.72,4.59,6.22,2.7l14.65-11.1c.61-.46,1.32-.74,2.07-.81l18.11-1.69c3.09-.29,4.75-3.85,2.93-6.27l-10.7-14.19c-.44-.59-.7-1.29-.75-2.03l-1.1-17.94c-.19-3.06-3.72-4.59-6.22-2.7Z"/>
  </g>
</svg>