<?xml version="1.0" encoding="UTF-8"?>
<svg id="Calque_1" data-name="Calque 1" xmlns="http://www.w3.org/2000/svg" viewBox="0 0 792 612">
  <defs>
    <style>
      .cls-1 {
        fill: #f39200;
      }
    </style>
  </defs>
  <path class="cls-1" d="M348.61,336.37l.09-4.02c0-.17,.06-.33,.15-.47l2.26-3.41c.39-.58-.01-1.34-.71-1.33l-4.04,.04c-.17,0-.33-.04-.47-.13l-3.36-2.13c-.57-.36-1.35,.06-1.36,.75l-.09,4.02c0,.17-.06,.33-.15,.47l-2.26,3.41c-.39,.58,.01,1.34,.71,1.33l4.04-.04c.17,0,.33,.04,.47,.13l3.36,2.13c.57,.36,1.35-.06,1.36-.75Z"/>
  <path class="cls-1" d="M341.49,320.15l1.54-3.76c.06-.16,.17-.29,.31-.39l3.32-2.41c.57-.41,.47-1.27-.17-1.51l-3.74-1.41c-.15-.06-.29-.16-.38-.29l-2.32-3.21c-.4-.55-1.26-.43-1.52,.22l-1.54,3.76c-.06,.16-.17,.29-.31,.39l-3.32,2.41c-.57,.41-.47,1.27,.17,1.51l3.74,1.41c.15,.06,.29,.16,.38,.29l2.32,3.21c.4,.55,1.26,.43,1.52-.22Z"/>
  <path class="cls-1" d="M340.83,302.28l2.79-3c.12-.12,.26-.21,.42-.26l3.93-1.09c.67-.19,.89-1.03,.39-1.48l-2.93-2.67c-.12-.11-.21-.25-.25-.41l-.96-3.87c-.16-.66-1.01-.85-1.48-.34l-2.79,3c-.12,.12-.26,.21-.42,.26l-3.93,1.09c-.67,.19-.89,1.03-.39,1.48l2.93,2.67c.12,.11,.21,.25,.25,.41l.96,3.87c.16,.66,1.01,.85,1.48,.34Z"/>
  <path class="cls-1" d="M346.71,285.16l3.66-1.84c.15-.08,.32-.11,.49-.09l4.01,.38c.68,.07,1.2-.65,.9-1.26l-1.73-3.57c-.07-.15-.1-.31-.08-.48l.52-4c.09-.68-.62-1.17-1.24-.85l-3.66,1.84c-.15,.08-.32,.11-.49,.09l-4.01-.38c-.68-.07-1.2,.65-.9,1.26l1.73,3.57c.07,.15,.1,.31,.08,.48l-.52,4c-.09,.68,.62,1.17,1.24,.85Z"/>
  <path class="cls-1" d="M358.35,271.09l4.03-.42c.17-.02,.33,.01,.48,.09l3.55,1.8c.61,.31,1.34-.19,1.29-.87l-.29-3.99c-.01-.17,.02-.33,.1-.48l1.93-3.59c.33-.61-.14-1.32-.83-1.25l-4.03,.42c-.17,.02-.33-.01-.48-.09l-3.55-1.8c-.61-.31-1.34,.19-1.29,.87l.29,3.99c.01,.17-.02,.33-.1,.48l-1.93,3.59c-.33,.61,.14,1.32,.83,1.25Z"/>
  <path class="cls-1" d="M374.18,261.97l3.87,1.05c.16,.04,.3,.13,.41,.25l2.62,2.97c.45,.51,1.3,.3,1.5-.36l1.18-3.88c.05-.16,.14-.3,.27-.42l3.08-2.7c.53-.46,.35-1.3-.31-1.48l-3.87-1.05c-.16-.04-.3-.13-.41-.25l-2.62-2.97c-.45-.51-1.3-.3-1.5,.36l-1.18,3.88c-.05,.16-.14,.3-.27,.42l-3.08,2.7c-.53,.46-.35,1.3,.31,1.48Z"/>
  <path class="cls-1" d="M392.07,259.04l3.18,2.37c.13,.1,.23,.23,.29,.39l1.33,3.75c.23,.64,1.09,.75,1.51,.2l2.5-3.24c.1-.13,.24-.24,.4-.3l3.82-1.45c.65-.25,.8-1.1,.25-1.51l-3.18-2.37c-.13-.1-.23-.23-.29-.39l-1.33-3.75c-.23-.64-1.09-.75-1.51-.2l-2.5,3.24c-.1,.13-.24,.24-.4,.3l-3.82,1.45c-.65,.25-.8,1.1-.25,1.51Z"/>
  <path class="cls-1" d="M409.61,262.67l2.07,3.38c.09,.14,.13,.3,.12,.47l-.14,4.02c-.02,.69,.73,1.1,1.32,.73l3.48-2.17c.14-.09,.31-.14,.48-.14h4.04c.69,0,1.13-.76,.78-1.33l-2.07-3.38c-.09-.14-.13-.3-.12-.47l.14-4.02c.02-.69-.73-1.1-1.32-.73l-3.48,2.17c-.14,.09-.31,.14-.48,.14h-4.04c-.69,0-1.13,.76-.78,1.33Z"/>
  <path class="cls-1" d="M424.43,272.39l.67,3.94c.03,.16,0,.33-.06,.49l-1.59,3.75c-.27,.64,.27,1.3,.95,1.16l3.99-.8c.16-.03,.33-.02,.49,.04l3.72,1.45c.64,.25,1.32-.31,1.2-.98l-.67-3.94c-.03-.16,0-.33,.06-.49l1.59-3.75c.27-.64-.27-1.3-.95-1.16l-3.99,.8c-.16,.03-.33,.02-.49-.04l-3.72-1.45c-.64-.25-1.32,.31-1.2,.98Z"/>
  <path class="cls-1" d="M434.54,286.88l-.81,3.96c-.03,.16-.11,.32-.23,.44l-2.82,2.97c-.48,.51-.23,1.32,.45,1.44l3.96,.67c.16,.03,.31,.1,.43,.21l2.9,2.7c.49,.46,1.33,.18,1.47-.5l.81-3.96c.03-.16,.11-.32,.23-.44l2.82-2.97c.48-.51,.23-1.32-.45-1.44l-3.96-.67c-.16-.03-.31-.1-.43-.21l-2.9-2.7c-.49-.46-1.33-.18-1.47,.5Z"/>
  <path class="cls-1" d="M438.59,304.2l-2.19,3.45c-.09,.14-.22,.26-.37,.33l-3.68,1.79c-.63,.31-.69,1.17-.11,1.52l3.4,2.06c.14,.08,.25,.21,.32,.36l1.69,3.59c.29,.61,1.16,.65,1.53,.06l2.19-3.45c.09-.14,.22-.26,.37-.33l3.68-1.79c.63-.31,.69-1.17,.11-1.52l-3.4-2.06c-.14-.08-.25-.21-.32-.36l-1.69-3.59c-.29-.61-1.16-.65-1.53-.06Z"/>
  <polyline class="cls-1" points="407.55 312.16 406.79 287.07 400.34 294.7 393.3 288.45 385.76 297.49 377.89 290.15 371.56 299.52 360.19 295.21 370.12 318.08"/>
  <path class="cls-1" d="M436.02,322.01l-3.27,2.48c-.13,.1-.3,.16-.46,.18l-4.04,.38c-.69,.06-1.06,.86-.65,1.4l2.38,3.16c.1,.13,.16,.29,.17,.45l.25,4c.04,.68,.83,1.02,1.39,.6l3.27-2.48c.13-.1,.3-.16,.46-.18l4.04-.38c.69-.06,1.06-.86,.65-1.4l-2.38-3.16c-.1-.13-.16-.29-.17-.45l-.25-4c-.04-.68-.83-1.02-1.39-.6Z"/>
</svg>