<?xml version="1.0" encoding="UTF-8"?>
<svg id="Calque_1" data-name="Calque 1" xmlns="http://www.w3.org/2000/svg" viewBox="0 0 792 612">
  <defs>
    <style>
      .cls-1 {
        fill: #f39200;
      }

      .cls-2, .cls-3 {
        fill: #0a71b8;
      }

      .cls-3, .cls-4 {
        letter-spacing: .07em;
      }

      .cls-5 {
        letter-spacing: .04em;
      }

      .cls-6 {
        letter-spacing: .08em;
      }

      .cls-7 {
        letter-spacing: .07em;
      }

      .cls-8 {
        stroke: #1d71b8;
      }

      .cls-8, .cls-9, .cls-10 {
        fill: none;
        stroke-miterlimit: 10;
        stroke-width: 10px;
      }

      .cls-9 {
        stroke: #0a71b8;
      }

      .cls-10 {
        stroke: #f39200;
      }

      .cls-11 {
        letter-spacing: .06em;
      }

      .cls-12 {
        font-family: Intro-Black, 'Intro Black';
        font-size: 40px;
        font-weight: 800;
      }
    </style>
  </defs>
  <path class="cls-9" d="M296.34,370.3c9.65,1.98,17.09,8.72,18.92,17.16,1.44,6.63-1.05,12.18-2.12,14.26"/>
  <path class="cls-10" d="M232.84,285.39c-6.67,2.76-9.41,10.53-9.09,16.36,.58,10.6,11.66,21.29,21.52,19.08,8.78-1.96,14.71-13.71,11.32-23.32-3.3-9.34-15.07-15.72-23.75-12.12Z"/>
  <path class="cls-10" d="M239.02,331.98c2.4-2.2,6.2-5.83,10.54-10.64,9.47-10.51,9.98-13.88,13.5-14.64,9.42-2.01,22.21,18.67,27.66,32.6,2.23,5.69,8.46,22.26,3.29,40.91-.26,.93-.65,2.75-1.65,4.99-2.94,6.59-10.09,6.84-10.09,6.84"/>
  <path class="cls-9" d="M170.16,386.01c-1.25-9.64-2.47-23.19-2.15-39.39,.63-32.19,6.96-55.93,12.45-76,7.24-26.48,11.06-39.98,20.81-52.75,7.42-9.71,25.82-33.81,47.55-29.42,21.81,4.4,30.25,34.12,30.68,35.69-4.65,1.42-10.71,3.79-17.17,7.84-7.33,4.6-8.76,10.67-16.09,13.79-1.79,.76-6.3,2.58-11.95,1.84-1.2-.16-2.19-.4-2.86-.58"/>
  <path class="cls-9" d="M216.85,394.96c-4.93-16.82-10.73-44.6-7-78.6,4.93-44.93,23.91-77.04,34.63-92.6"/>
  <path class="cls-8" d="M217.37,279.83c.65,1.46,1.72,3.18,3.54,4.36,9.93,6.42,30.7-10.84,35.13-14.52,8.35-6.94,21.24-17.66,22.81-34.49,.41-4.43-.06-8.14-.54-10.6"/>
  <path class="cls-9" d="M276.33,404.64c7.89-8.25,6.82-24.04,6.82-24.04l-18.21-7.34c-13.65-7.85-33.82-55.46-33.82-55.46-5.02-6.82-17.94-2.51-17.94-2.51l-2.61,.9-.71,.18"/>
  <path class="cls-1" d="M186.18,227.74l.12-5.36c0-.22,.07-.44,.2-.63l3.01-4.54c.51-.78-.02-1.78-.94-1.77l-5.39,.06c-.22,0-.44-.06-.62-.18l-4.47-2.84c-.76-.48-1.79,.08-1.82,.99l-.12,5.36c0,.22-.07,.44-.2,.63l-3.01,4.54c-.51,.78,.02,1.78,.94,1.77l5.39-.06c.22,0,.44,.06,.62,.18l4.47,2.84c.76,.48,1.79-.08,1.82-.99Z"/>
  <path class="cls-1" d="M176.68,206.11l2.06-5.02c.09-.21,.23-.39,.41-.52l4.42-3.21c.76-.55,.63-1.69-.22-2.01l-4.99-1.88c-.21-.08-.38-.21-.51-.39l-3.09-4.29c-.53-.73-1.68-.57-2.03,.29l-2.06,5.02c-.09,.21-.23,.39-.41,.52l-4.42,3.21c-.76,.55-.63,1.69,.22,2.01l4.99,1.88c.21,.08,.38,.21,.51,.39l3.09,4.29c.53,.73,1.68,.57,2.03-.29Z"/>
  <path class="cls-1" d="M175.8,182.28l3.72-4c.15-.17,.35-.28,.57-.34l5.24-1.45c.89-.25,1.19-1.37,.53-1.98l-3.91-3.56c-.16-.15-.28-.34-.33-.55l-1.28-5.16c-.22-.88-1.34-1.14-1.98-.46l-3.72,4c-.15,.17-.35,.28-.57,.34l-5.24,1.45c-.89,.25-1.19,1.37-.53,1.98l3.91,3.56c.16,.15,.28,.34,.33,.55l1.28,5.16c.22,.88,1.34,1.14,1.98,.46Z"/>
  <path class="cls-1" d="M183.64,159.45l4.88-2.45c.2-.1,.43-.14,.65-.12l5.35,.51c.91,.09,1.6-.87,1.2-1.68l-2.3-4.76c-.1-.2-.13-.42-.1-.64l.69-5.33c.12-.91-.82-1.56-1.65-1.14l-4.88,2.45c-.2,.1-.43,.14-.65,.12l-5.35-.51c-.91-.09-1.6,.87-1.2,1.68l2.3,4.76c.1,.2,.13,.42,.1,.64l-.69,5.33c-.12,.91,.82,1.56,1.65,1.14Z"/>
  <path class="cls-1" d="M199.17,140.69l5.38-.56c.22-.02,.44,.02,.64,.12l4.74,2.4c.81,.41,1.78-.25,1.72-1.16l-.39-5.33c-.02-.22,.03-.44,.14-.64l2.57-4.79c.44-.82-.19-1.76-1.11-1.67l-5.38,.56c-.22,.02-.44-.02-.64-.12l-4.74-2.4c-.81-.41-1.78,.25-1.72,1.16l.39,5.33c.02,.22-.03,.44-.14,.64l-2.57,4.79c-.44,.82,.19,1.76,1.11,1.67Z"/>
  <path class="cls-1" d="M220.28,128.54l5.16,1.39c.21,.06,.4,.18,.55,.34l3.49,3.96c.6,.68,1.73,.41,2-.48l1.58-5.17c.07-.21,.19-.41,.36-.56l4.11-3.6c.7-.62,.47-1.74-.41-1.97l-5.16-1.39c-.21-.06-.4-.18-.55-.34l-3.49-3.96c-.6-.68-1.73-.41-2,.48l-1.58,5.17c-.07,.21-.19,.41-.36,.56l-4.11,3.6c-.7,.62-.47,1.74,.41,1.97Z"/>
  <path class="cls-1" d="M244.13,124.62l4.24,3.17c.18,.13,.31,.31,.38,.52l1.77,5c.3,.85,1.45,1,2.02,.27l3.33-4.32c.14-.18,.32-.32,.53-.4l5.09-1.93c.87-.33,1.06-1.47,.34-2.01l-4.24-3.17c-.18-.13-.31-.31-.38-.52l-1.77-5c-.3-.85-1.45-1-2.02-.27l-3.33,4.32c-.14,.18-.32,.32-.53,.4l-5.09,1.93c-.87,.33-1.06,1.47-.34,2.01Z"/>
  <path class="cls-1" d="M267.51,129.46l2.75,4.51c.11,.19,.17,.4,.16,.62l-.18,5.36c-.03,.91,.97,1.47,1.76,.98l4.64-2.89c.19-.12,.41-.18,.63-.18h5.39c.92,0,1.51-1.01,1.04-1.78l-2.75-4.51c-.11-.19-.17-.4-.16-.62l.18-5.36c.03-.91-.97-1.47-1.76-.98l-4.64,2.89c-.19,.12-.41,.18-.63,.18h-5.39c-.92,0-1.51,1.01-1.04,1.78Z"/>
  <path class="cls-1" d="M287.28,142.42l.9,5.25c.04,.22,.01,.44-.08,.65l-2.11,4.99c-.36,.85,.36,1.73,1.27,1.55l5.32-1.07c.22-.04,.45-.02,.65,.05l4.96,1.93c.85,.33,1.76-.41,1.61-1.31l-.9-5.25c-.04-.22-.01-.44,.08-.65l2.11-4.99c.36-.85-.36-1.73-1.27-1.55l-5.32,1.07c-.22,.04-.45,.02-.65-.05l-4.96-1.93c-.85-.33-1.76,.41-1.61,1.31Z"/>
  <path class="cls-1" d="M300.76,161.75l-1.08,5.28c-.04,.22-.15,.42-.31,.58l-3.76,3.96c-.64,.68-.3,1.77,.6,1.92l5.28,.9c.22,.04,.42,.14,.58,.29l3.86,3.61c.66,.62,1.77,.24,1.95-.66l1.08-5.28c.04-.22,.15-.42,.31-.58l3.76-3.96c.64-.68,.3-1.77-.6-1.92l-5.28-.9c-.22-.04-.42-.14-.58-.29l-3.86-3.61c-.66-.62-1.77-.24-1.95,.66Z"/>
  <path class="cls-1" d="M306.16,184.84l-2.92,4.6c-.12,.19-.29,.34-.49,.44l-4.9,2.39c-.84,.41-.92,1.56-.14,2.03l4.54,2.74c.19,.11,.34,.28,.43,.48l2.25,4.79c.38,.82,1.54,.86,2.04,.08l2.92-4.6c.12-.19,.29-.34,.49-.44l4.9-2.39c.84-.41,.92-1.56,.14-2.03l-4.54-2.74c-.19-.11-.34-.28-.43-.48l-2.25-4.79c-.38-.82-1.54-.86-2.04-.08Z"/>
  <polyline class="cls-1" points="264.77 195.45 263.75 162 255.15 172.17 245.76 163.83 235.71 175.89 225.22 166.1 216.78 178.6 201.62 172.85 214.85 203.34"/>
  <path class="cls-1" d="M302.73,208.59l-4.36,3.3c-.18,.14-.39,.22-.62,.24l-5.38,.5c-.92,.09-1.41,1.14-.87,1.86l3.18,4.22c.13,.17,.21,.38,.22,.6l.33,5.33c.06,.91,1.11,1.37,1.85,.8l4.36-3.3c.18-.14,.39-.22,.62-.24l5.38-.5c.92-.09,1.41-1.14,.87-1.86l-3.18-4.22c-.13-.17-.21-.38-.22-.6l-.33-5.33c-.06-.91-1.11-1.37-1.85-.8Z"/>
  <text class="cls-12" transform="translate(328.84 264.16)"><tspan class="cls-2"><tspan class="cls-4" x="0" y="0">POUR </tspan><tspan class="cls-6" x="138.72" y="0">L</tspan><tspan class="cls-5" x="163.04" y="0">A</tspan><tspan class="cls-7" x="192.76" y="0"> </tspan></tspan><tspan class="cls-1"><tspan class="cls-4" x="0" y="48">J</tspan><tspan class="cls-11" x="28.08" y="48">O</tspan><tspan class="cls-4" x="62.4" y="48">IE </tspan></tspan><tspan class="cls-3"><tspan x="0" y="96">DE MARIE</tspan></tspan></text>
</svg>