<?xml version="1.0" encoding="UTF-8"?>
<svg id="Calque_2" data-name="Calque 2" xmlns="http://www.w3.org/2000/svg" viewBox="0 0 267.58 507.59">
  <defs>
    <style>
      .cls-1 {
        fill: #f39200;
      }

      .cls-2 {
        stroke: #f39200;
      }

      .cls-2, .cls-3 {
        fill: none;
        stroke-miterlimit: 10;
        stroke-width: 10px;
      }

      .cls-3 {
        stroke: #fff;
      }
    </style>
  </defs>
  <g id="Calque_1-2" data-name="Calque 1">
    <path class="cls-3" d="M228.83,444.26c16.82,3.46,29.8,15.2,32.99,29.92,2.51,11.56-1.83,21.24-3.7,24.87"/>
    <path class="cls-2" d="M118.12,296.23c-11.62,4.82-16.4,18.35-15.84,28.52,1.02,18.49,20.32,37.12,37.52,33.27,15.31-3.42,25.65-23.91,19.73-40.67-5.75-16.29-26.27-27.4-41.41-21.12Z"/>
    <path class="cls-2" d="M128.89,377.46c4.18-3.84,10.8-10.16,18.37-18.56,16.51-18.32,17.4-24.21,23.54-25.52,16.43-3.51,38.72,32.55,48.22,56.83,3.88,9.92,14.75,38.81,5.74,71.33-.45,1.63-1.13,4.79-2.87,8.7-5.12,11.5-17.6,11.92-17.6,11.92"/>
    <path class="cls-3" d="M8.84,471.66c-2.18-16.81-4.31-40.43-3.75-68.68,1.1-56.12,12.13-97.51,21.7-132.5,12.63-46.17,19.29-69.71,36.29-91.96,12.93-16.93,45.01-58.94,82.9-51.29,38.02,7.68,52.75,59.49,53.49,62.23-8.1,2.48-18.67,6.6-29.93,13.67-12.79,8.02-15.27,18.61-28.05,24.04-3.12,1.33-10.98,4.5-20.84,3.21-2.1-.27-3.81-.69-4.99-1.02"/>
    <path class="cls-3" d="M90.25,487.26c-8.6-29.33-18.71-77.77-12.21-137.03,8.59-78.33,41.68-134.32,60.38-161.45"/>
    <path class="cls-3" d="M91.15,286.53c1.13,2.55,2.99,5.55,6.17,7.6,17.32,11.2,53.52-18.9,61.24-25.31,14.55-12.1,37.04-30.79,39.78-60.13,.72-7.72-.11-14.19-.94-18.48"/>
    <path class="cls-3" d="M193.95,504.14c13.76-14.39,11.89-41.92,11.89-41.92l-31.76-12.79c-23.79-13.69-58.96-96.7-58.96-96.7-8.76-11.89-31.28-4.38-31.28-4.38l-4.56,1.56-1.24,.32"/>
    <path class="cls-1" d="M36.76,195.71l.21-9.34c0-.39,.13-.76,.35-1.09l5.25-7.92c.9-1.35-.03-3.1-1.64-3.09l-9.4,.1c-.39,0-.77-.1-1.09-.31l-7.8-4.95c-1.33-.85-3.13,.14-3.16,1.73l-.21,9.34c0,.39-.13,.76-.35,1.09l-5.25,7.92c-.9,1.35,.03,3.1,1.64,3.09l9.4-.1c.39,0,.77,.1,1.09,.31l7.8,4.95c1.33,.85,3.13-.14,3.16-1.73Z"/>
    <path class="cls-1" d="M20.21,158.01l3.59-8.75c.15-.36,.4-.68,.71-.91l7.71-5.6c1.32-.96,1.1-2.94-.39-3.5l-8.69-3.27c-.36-.14-.67-.37-.89-.68l-5.38-7.47c-.92-1.28-2.93-.99-3.54,.5l-3.59,8.75c-.15,.36-.4,.68-.71,.91l-7.71,5.6c-1.32,.96-1.1,2.94,.39,3.5l8.69,3.27c.36,.14,.67,.37,.89,.68l5.38,7.47c.92,1.28,2.93,.99,3.54-.5Z"/>
    <path class="cls-1" d="M18.66,116.46l6.48-6.98c.27-.29,.61-.5,.99-.6l9.13-2.53c1.56-.43,2.08-2.39,.92-3.45l-6.81-6.21c-.28-.26-.48-.59-.57-.96l-2.24-8.99c-.38-1.54-2.34-1.99-3.44-.8l-6.48,6.98c-.27,.29-.61,.5-.99,.6l-9.13,2.53c-1.56,.43-2.08,2.39-.92,3.45l6.81,6.21c.28,.26,.48,.59,.57,.96l2.24,8.99c.38,1.54,2.34,1.99,3.44,.8Z"/>
    <path class="cls-1" d="M32.35,76.65l8.5-4.27c.35-.18,.74-.25,1.13-.21l9.33,.89c1.59,.15,2.78-1.51,2.1-2.93l-4.02-8.3c-.17-.34-.23-.73-.18-1.11l1.21-9.3c.21-1.59-1.43-2.71-2.88-1.99l-8.5,4.27c-.35,.18-.74,.25-1.13,.21l-9.33-.89c-1.59-.15-2.78,1.51-2.1,2.93l4.02,8.3c.17,.34,.23,.73,.18,1.11l-1.21,9.3c-.21,1.59,1.43,2.71,2.88,1.99Z"/>
    <path class="cls-1" d="M59.41,43.95l9.38-.98c.39-.04,.77,.03,1.12,.2l8.26,4.18c1.41,.71,3.11-.43,3-2.02l-.68-9.29c-.03-.38,.06-.77,.24-1.12l4.49-8.35c.77-1.43-.33-3.08-1.93-2.91l-9.38,.98c-.39,.04-.77-.03-1.12-.2l-8.26-4.18c-1.41-.71-3.11,.43-3,2.02l.68,9.29c.03,.38-.06,.77-.24,1.12l-4.49,8.35c-.77,1.43,.33,3.08,1.93,2.91Z"/>
    <path class="cls-1" d="M96.22,22.75l8.99,2.43c.37,.1,.7,.31,.95,.59l6.09,6.91c1.04,1.18,3.02,.71,3.49-.83l2.75-9.02c.11-.37,.33-.71,.63-.97l7.17-6.28c1.22-1.07,.81-3.03-.72-3.44l-8.99-2.43c-.37-.1-.7-.31-.95-.59l-6.09-6.91c-1.04-1.18-3.02-.71-3.49,.83l-2.75,9.02c-.11,.37-.33,.71-.63,.97l-7.17,6.28c-1.22,1.07-.81,3.03,.72,3.44Z"/>
    <path class="cls-1" d="M137.8,15.92l7.39,5.52c.31,.23,.54,.54,.66,.9l3.09,8.71c.53,1.49,2.52,1.75,3.52,.47l5.81-7.53c.24-.31,.56-.55,.93-.69l8.88-3.36c1.52-.57,1.85-2.57,.59-3.51l-7.39-5.52c-.31-.23-.54-.54-.66-.9l-3.09-8.71c-.53-1.49-2.52-1.75-3.52-.47l-5.81,7.53c-.24,.31-.56,.55-.93,.69l-8.88,3.36c-1.52,.57-1.85,2.57-.59,3.51Z"/>
    <path class="cls-1" d="M178.57,24.37l4.8,7.86c.2,.32,.3,.7,.28,1.09l-.32,9.34c-.05,1.59,1.69,2.56,3.07,1.7l8.08-5.03c.33-.21,.72-.32,1.11-.32h9.4c1.6,0,2.64-1.76,1.82-3.1l-4.8-7.86c-.2-.32-.3-.7-.28-1.09l.32-9.34c.05-1.59-1.69-2.56-3.07-1.7l-8.08,5.03c-.33,.21-.72,.32-1.11,.32h-9.4c-1.6,0-2.64,1.76-1.82,3.1Z"/>
    <path class="cls-1" d="M213.03,46.96l1.56,9.15c.06,.38,.02,.77-.13,1.13l-3.69,8.71c-.63,1.49,.62,3.02,2.21,2.71l9.27-1.86c.38-.08,.78-.04,1.13,.1l8.65,3.37c1.48,.58,3.07-.72,2.8-2.28l-1.56-9.15c-.06-.38-.02-.77,.13-1.13l3.69-8.71c.63-1.49-.62-3.02-2.21-2.71l-9.27,1.86c-.38,.08-.78,.04-1.13-.1l-8.65-3.37c-1.48-.58-3.07,.72-2.8,2.28Z"/>
    <path class="cls-1" d="M236.54,80.65l-1.89,9.2c-.08,.38-.26,.73-.53,1.02l-6.56,6.9c-1.12,1.18-.53,3.08,1.05,3.35l9.21,1.57c.38,.06,.73,.24,1.01,.5l6.74,6.29c1.15,1.07,3.08,.42,3.41-1.15l1.89-9.2c.08-.38,.26-.73,.53-1.02l6.56-6.9c1.12-1.18,.53-3.08-1.05-3.35l-9.21-1.57c-.38-.06-.73-.24-1.01-.5l-6.74-6.29c-1.15-1.07-3.08-.42-3.41,1.15Z"/>
    <path class="cls-1" d="M245.95,120.91l-5.08,8.02c-.21,.33-.51,.6-.86,.77l-8.55,4.17c-1.46,.71-1.6,2.72-.25,3.54l7.91,4.78c.33,.2,.59,.49,.75,.83l3.92,8.35c.67,1.43,2.69,1.5,3.56,.13l5.08-8.02c.21-.33,.51-.6,.86-.77l8.55-4.17c1.46-.71,1.6-2.72,.25-3.54l-7.91-4.78c-.33-.2-.59-.49-.75-.83l-3.92-8.35c-.67-1.43-2.69-1.5-3.56-.13Z"/>
    <polyline class="cls-1" points="173.78 139.42 172.02 81.09 157.02 98.82 140.65 84.29 123.13 105.31 104.83 88.25 90.11 110.05 63.68 100.01 86.76 153.18"/>
    <path class="cls-1" d="M239.97,162.32l-7.59,5.75c-.31,.24-.69,.38-1.07,.42l-9.39,.88c-1.6,.15-2.46,2-1.52,3.25l5.54,7.35c.23,.3,.36,.67,.39,1.05l.57,9.3c.1,1.59,1.93,2.38,3.23,1.4l7.59-5.75c.31-.24,.69-.38,1.07-.42l9.39-.88c1.6-.15,2.46-2,1.52-3.25l-5.54-7.35c-.23-.3-.36-.67-.39-1.05l-.57-9.3c-.1-1.59-1.93-2.38-3.23-1.4Z"/>
  </g>
</svg>